<?xml version="1.0" encoding="UTF-8"?>
<svg width="518px" height="91px" viewBox="0 0 518 91" version="1.1" xmlns="http://www.w3.org/2000/svg" xmlns:xlink="http://www.w3.org/1999/xlink">
    <!-- Generator: Sketch 64 (93537) - https://sketch.com -->
    <title>logo</title>
    <desc>Created with Sketch.</desc>
    <g id="Page-1" stroke="none" stroke-width="1" fill="none" fill-rule="evenodd">
        <g id="logo" transform="translate(-1.000000, -1.000000)" fill="#50287D" fill-rule="nonzero">
            <g id="d588e095-b00b-4262-abff-4fa67950f1ea" transform="translate(93.230347, 15.427768)">
                <path d="M31.5853677,39.6904338 L38.1144487,59.7279582 L25.787994,59.7279582 L20.3846167,43.0112594 L20.3846167,43.0112594 C20.1594759,42.3733607 19.8405266,41.7729854 19.4277686,41.2101336 L19.4277686,41.2101336 L19.4277686,41.2101336 C19.052534,40.7973756 18.5834909,40.3846176 18.020639,39.9718597 L18.020639,39.9718597 L18.020639,39.9718597 C17.4953107,39.5966251 16.8386502,39.4090078 16.0506577,39.4090078 L16.0506577,39.4090078 L11.3789877,39.4090078 L11.3789877,59.7279582 L0.459662561,59.7279582 L0.459662561,8.28330273 L15.0938096,8.28330273 L15.0938096,8.28330273 C17.7579749,8.28330273 20.2720463,8.48968172 22.6360239,8.90243972 L22.6360239,8.90243972 L22.6360239,8.90243972 C25.0000015,9.31519771 27.0825532,10.0844285 28.883679,11.2101321 L28.883679,11.2101321 L28.883679,11.2101321 C30.6848048,12.3358358 32.0919343,13.8742974 33.1050676,15.825517 L33.1050676,15.825517 L33.1050676,15.825517 C34.1182008,17.7767366 34.6247675,20.2720463 34.6247675,23.3114461 L34.6247675,23.3114461 L34.6247675,23.3114461 C34.6247675,25.6754237 34.1369626,27.5703581 33.1613527,28.9962494 L33.1613527,28.9962494 L33.1613527,28.9962494 C32.1482195,30.4221406 31.0412776,31.5290825 29.8405271,32.317075 L29.8405271,32.317075 L29.8405271,32.317075 C28.6397765,33.1050676 27.5328346,33.6303959 26.5197014,33.8930601 L26.5197014,33.8930601 L26.5197014,33.8930601 C25.5065681,34.1557243 25.0000015,34.2870564 25.0000015,34.2870564 L25.0000015,34.2870564 L25.0000015,34.2870564 C26.2757989,34.2870564 27.3264556,34.5684823 28.1519716,35.1313341 L28.1519716,35.1313341 L28.1519716,35.1313341 C29.0150111,35.7317093 29.6904333,36.3696081 30.1782382,37.0450302 L30.1782382,37.0450302 L30.1782382,37.0450302 C30.6660431,37.7204524 31.0225159,38.3395894 31.2476566,38.9024412 L31.2476566,38.9024412 L31.2476566,38.9024412 C31.4727973,39.4277696 31.5853677,39.6904338 31.5853677,39.6904338 L31.5853677,39.6904338 Z M11.3789877,30.2345233 L14.1369616,30.2345233 L14.1369616,30.2345233 C15.3001886,30.2345233 16.4258923,30.1407147 17.5140724,29.9530974 L17.5140724,29.9530974 L17.5140724,29.9530974 C18.639776,29.7279567 19.6341476,29.3527222 20.497187,28.8273938 L20.497187,28.8273938 L20.497187,28.8273938 C21.3602265,28.3020655 22.0544104,27.5703581 22.5797387,26.6322717 L22.5797387,26.6322717 L22.5797387,26.6322717 C23.1050671,25.6941854 23.3677312,24.5121966 23.3677312,23.0863053 L23.3677312,23.0863053 L23.3677312,23.0863053 C23.3677312,21.6604141 23.1425905,20.5534722 22.6923091,19.7654797 L22.6923091,19.7654797 L22.6923091,19.7654797 C22.2420276,18.9774871 21.6041289,18.3958736 20.7786129,18.020639 L20.7786129,18.020639 L20.7786129,18.020639 C19.9155735,17.6078811 18.9212019,17.3452169 17.7954983,17.2326465 L17.7954983,17.2326465 L17.7954983,17.2326465 C16.6697947,17.1575996 15.4502824,17.1200762 14.1369616,17.1200762 L14.1369616,17.1200762 L11.3789877,17.1200762 L11.3789877,30.2345233 Z M64.7373393,60.5722359 L64.7373393,60.5722359 L64.7373393,60.5722359 C60.3846186,60.5722359 56.7823671,60.0093841 53.9305846,58.8836805 L53.9305846,58.8836805 L53.9305846,58.8836805 C51.1163255,57.7204534 48.8461565,56.1632301 47.1200776,54.2120105 L47.1200776,54.2120105 L47.1200776,54.2120105 C45.4315222,52.2607909 44.2307717,50.0093836 43.5178261,47.4577887 L43.5178261,47.4577887 L43.5178261,47.4577887 C42.8424039,44.9061939 42.5046928,42.2232669 42.5046928,39.4090078 L42.5046928,39.4090078 L42.5046928,39.4090078 C42.5046928,36.8949364 42.8424039,34.3621033 43.5178261,31.8105084 L43.5178261,31.8105084 L43.5178261,31.8105084 C44.2307717,29.296437 45.3377136,27.026268 46.8386517,25.0000015 L46.8386517,25.0000015 L46.8386517,25.0000015 C48.3020665,22.973735 50.2532861,21.3414647 52.6923106,20.1031907 L52.6923106,20.1031907 L52.6923106,20.1031907 C55.0938116,18.8273933 58.0394028,18.1894946 61.529084,18.1894946 L61.529084,18.1894946 L61.529084,18.1894946 C65.2063825,18.1894946 68.264544,18.8273933 70.7035685,20.1031907 L70.7035685,20.1031907 L70.7035685,20.1031907 C73.142593,21.3414647 75.0938126,22.973735 76.5572273,25.0000015 L76.5572273,25.0000015 L76.5572273,25.0000015 C78.020642,27.026268 79.052537,29.296437 79.6529123,31.8105084 L79.6529123,31.8105084 L79.6529123,31.8105084 C80.2532876,34.3621033 80.5534752,36.8949364 80.5534752,39.4090078 L80.5534752,39.4090078 L80.5534752,42.9549743 L52.6923106,42.9549743 L52.6923106,42.9549743 C52.6923106,45.7692333 53.7054438,48.0956875 55.7317103,49.9343367 L55.7317103,49.9343367 L55.7317103,49.9343367 C57.7579769,51.7729859 60.5159507,52.6923106 64.005632,52.6923106 L64.005632,52.6923106 L64.005632,52.6923106 C66.0318985,52.6923106 67.8705477,52.4859316 69.5215797,52.0731736 L69.5215797,52.0731736 L69.5215797,52.0731736 C71.2101351,51.6604156 72.6547881,51.1913724 73.8555386,50.6660441 L73.8555386,50.6660441 L73.8555386,50.6660441 C75.2439064,50.1031922 76.5197039,49.4277701 77.682931,48.6397775 L77.682931,48.6397775 L77.682931,57.4202658 L77.682931,57.4202658 C77.682931,57.4953127 77.3264581,57.68293 76.6135125,57.9831176 L76.6135125,57.9831176 L76.6135125,57.9831176 C75.9380903,58.3208287 75.0187657,58.6773015 73.8555386,59.052536 L73.8555386,59.052536 L73.8555386,59.052536 C72.729835,59.465294 71.3789907,59.8217668 69.8030056,60.1219545 L69.8030056,60.1219545 L69.8030056,60.1219545 C68.2270205,60.4221421 66.5384651,60.5722359 64.7373393,60.5722359 Z M52.6923106,35.4690452 L70.5909981,35.4690452 L70.5909981,35.4690452 C70.5909981,34.5684823 70.4596661,33.5741107 70.1970019,32.4859306 L70.1970019,32.4859306 L70.1970019,32.4859306 C69.9718612,31.4352739 69.5403414,30.4221406 68.9024427,29.4465308 L68.9024427,29.4465308 L68.9024427,29.4465308 C68.2270205,28.5084444 67.2889342,27.7204519 66.0881837,27.0825532 L66.0881837,27.0825532 L66.0881837,27.0825532 C64.9249566,26.4821779 63.4052567,26.1819903 61.529084,26.1819903 L61.529084,26.1819903 L61.529084,26.1819903 C59.878052,26.1819903 58.4896842,26.4821779 57.3639806,27.0825532 L57.3639806,27.0825532 L57.3639806,27.0825532 C56.238277,27.7204519 55.3377141,28.5084444 54.6622919,29.4465308 L54.6622919,29.4465308 L54.6622919,29.4465308 C53.9868697,30.4221406 53.4803031,31.4352739 53.142592,32.4859306 L53.142592,32.4859306 L53.142592,32.4859306 C52.8424044,33.5741107 52.6923106,34.5684823 52.6923106,35.4690452 L52.6923106,35.4690452 Z M135.318956,18.1894946 L135.318956,18.1894946 L135.318956,18.1894946 C138.170739,18.1894946 140.440908,18.6960612 142.129463,19.7091945 L142.129463,19.7091945 L142.129463,19.7091945 C143.855542,20.6848043 145.168863,21.9981252 146.069426,23.6491572 L146.069426,23.6491572 L146.069426,23.6491572 C146.969989,25.2626657 147.551602,27.1200766 147.814267,29.2213901 L147.814267,29.2213901 L147.814267,29.2213901 C148.114454,31.3227035 148.264548,33.4990638 148.264548,35.7504711 L148.264548,35.7504711 L148.264548,59.7279582 L137.682934,59.7279582 L137.682934,59.671673 L137.626649,35.4690452 L137.626649,35.4690452 C137.626649,34.1557243 137.551602,32.936212 137.401508,31.8105084 L137.401508,31.8105084 L137.401508,31.8105084 C137.251414,30.7223282 136.951227,29.7842419 136.500945,28.9962494 L136.500945,28.9962494 L136.500945,28.9962494 C136.050664,28.2082568 135.431527,27.5891198 134.643534,27.1388384 L134.643534,27.1388384 L134.643534,27.1388384 C133.855542,26.6885569 132.86117,26.4634162 131.66042,26.4634162 L131.66042,26.4634162 L131.66042,26.4634162 C130.084435,26.4634162 128.771114,26.8386507 127.720457,27.5891198 L127.720457,27.5891198 L127.720457,27.5891198 C126.6698,28.3020655 125.844284,29.2401518 125.243909,30.4033789 L125.243909,30.4033789 L125.243909,30.4033789 C124.681057,31.5290825 124.287061,32.7485948 124.06192,34.0619156 L124.06192,34.0619156 L124.06192,34.0619156 C123.799256,35.3752365 123.667924,36.5947488 123.667924,37.7204524 L123.667924,37.7204524 L123.667924,59.7279582 L113.255165,59.7279582 L113.255165,59.671673 L113.19888,59.671673 L113.19888,35.4690452 L113.19888,35.4690452 C113.19888,34.1557243 113.105072,32.936212 112.917454,31.8105084 L112.917454,31.8105084 L112.917454,31.8105084 C112.729837,30.7223282 112.410888,29.7654802 111.960606,28.9399642 L111.960606,28.9399642 L111.960606,28.9399642 C111.472801,28.1519716 110.816141,27.5328346 109.990625,27.0825532 L109.990625,27.0825532 L109.990625,27.0825532 C109.127585,26.6322717 108.039405,26.407131 106.726084,26.407131 L106.726084,26.407131 L106.726084,26.407131 C105.26267,26.407131 104.061919,26.7636038 103.123833,27.4765495 L103.123833,27.4765495 L103.123833,27.4765495 C102.185746,28.2270185 101.416516,29.1651049 100.81614,30.2908085 L100.81614,30.2908085 L100.81614,30.2908085 C100.253289,31.4165121 99.8592923,32.6547861 99.6341516,34.0056305 L99.6341516,34.0056305 L99.6341516,34.0056305 C99.3714874,35.3564748 99.2401553,36.5947488 99.2401553,37.7204524 L99.2401553,37.7204524 L99.2401553,59.7279582 L88.7148264,59.7279582 L88.7148264,19.1463427 L96.651037,19.1463427 L98.3958776,25.3939978 L98.3958776,25.3939978 C98.3958776,25.3939978 98.6210183,25.0187632 99.0712998,24.2682941 L99.0712998,24.2682941 L99.0712998,24.2682941 C99.5591047,23.5178251 100.27205,22.7110708 101.210137,21.8480314 L101.210137,21.8480314 L101.210137,21.8480314 C102.148223,20.9474685 103.348974,20.1219525 104.812388,19.3714834 L104.812388,19.3714834 L104.812388,19.3714834 C106.238279,18.5834909 107.964358,18.1894946 109.990625,18.1894946 L109.990625,18.1894946 L109.990625,18.1894946 C112.617267,18.1894946 114.737342,18.5647291 116.35085,19.3151982 L116.35085,19.3151982 L116.35085,19.3151982 C117.964359,20.0281438 119.258918,20.8348981 120.234528,21.735461 L120.234528,21.735461 L120.234528,21.735461 C121.322708,22.7861177 122.129462,23.9681065 122.654791,25.2814274 L122.654791,25.2814274 L122.654791,25.2814274 C122.767361,25.1313336 123.048787,24.6810521 123.499068,23.9305831 L123.499068,23.9305831 L123.499068,23.9305831 C123.986873,23.2176374 124.737342,22.4296449 125.750476,21.5666055 L125.750476,21.5666055 L125.750476,21.5666055 C126.726085,20.703566 128.001883,19.9155735 129.577868,19.2026278 L129.577868,19.2026278 L129.577868,19.2026278 C131.153853,18.5272057 133.067549,18.1894946 135.318956,18.1894946 Z M170.328339,59.7279582 L159.69044,59.7279582 L159.69044,19.1463427 L170.328339,19.1463427 L170.328339,59.7279582 Z M170.891191,6.36960657 L170.891191,6.36960657 L170.891191,6.36960657 C170.891191,8.058162 170.309577,9.48405326 169.14635,10.6472803 L169.14635,10.6472803 L169.14635,10.6472803 C167.983123,11.8105074 166.594755,12.3921209 164.981247,12.3921209 L164.981247,12.3921209 L164.981247,12.3921209 C163.292691,12.3921209 161.8668,11.8105074 160.703573,10.6472803 L160.703573,10.6472803 L160.703573,10.6472803 C159.540346,9.48405326 158.958732,8.058162 158.958732,6.36960657 L158.958732,6.36960657 L158.958732,6.36960657 C158.958732,4.75609805 159.540346,3.38649198 160.703573,2.26078835 L160.703573,2.26078835 L160.703573,2.26078835 C161.8668,1.13508473 163.292691,0.572232924 164.981247,0.572232924 L164.981247,0.572232924 L164.981247,0.572232924 C166.594755,0.572232924 167.983123,1.13508473 169.14635,2.26078835 L169.14635,2.26078835 L169.14635,2.26078835 C170.309577,3.38649198 170.891191,4.75609805 170.891191,6.36960657 Z M205.788003,18.1894946 L205.788003,18.1894946 L205.788003,18.1894946 C208.189504,18.1894946 210.272056,18.6022526 212.035658,19.4277686 L212.035658,19.4277686 L212.035658,19.4277686 C213.761737,20.2532846 215.187628,21.3602265 216.313332,22.7485943 L216.313332,22.7485943 L216.313332,22.7485943 C217.439035,24.1744855 218.264551,25.8630409 218.78988,27.8142605 L218.78988,27.8142605 L218.78988,27.8142605 C219.315208,29.7654802 219.577872,31.8667936 219.577872,34.1182008 L219.577872,34.1182008 L219.577872,59.7279582 L208.996258,59.7279582 L208.996258,37.6641672 L208.996258,37.6641672 C208.996258,33.761728 208.47093,30.8911838 207.420273,29.0525345 L207.420273,29.0525345 L207.420273,29.0525345 C206.369617,27.2138853 204.568491,26.2945607 202.016896,26.2945607 L202.016896,26.2945607 L202.016896,26.2945607 C198.902449,26.2945607 196.594757,27.5891198 195.093819,30.1782382 L195.093819,30.1782382 L195.093819,30.1782382 C193.59288,32.7673565 192.842411,36.1632291 192.842411,40.3658559 L192.842411,40.3658559 L192.842411,59.7279582 L182.317083,59.7279582 L182.317083,19.1463427 L190.197008,19.1463427 L192.335845,24.6622904 L192.335845,24.6622904 C192.861173,24.0994386 193.424025,23.4240164 194.0244,22.6360239 L194.0244,22.6360239 L194.0244,22.6360239 C194.662299,21.8855548 195.469053,21.1913709 196.444663,20.5534722 L196.444663,20.5534722 L196.444663,20.5534722 C197.420273,19.87805 198.658547,19.3151982 200.159485,18.8649168 L200.159485,18.8649168 L200.159485,18.8649168 C201.660423,18.4146353 203.536596,18.1894946 205.788003,18.1894946 Z M243.949356,18.1894946 L243.949356,18.1894946 L243.949356,18.1894946 C245.938099,18.1894946 247.701701,18.5272057 249.240163,19.2026278 L249.240163,19.2026278 L249.240163,19.2026278 C250.778624,19.8405266 252.073184,20.5347105 253.12384,21.2851795 L253.12384,21.2851795 L253.12384,21.2851795 C254.362114,22.2232659 255.412771,23.2363992 256.27581,24.3245793 L256.27581,24.3245793 L256.27581,9.35272117 L266.857424,9.35272117 L266.857424,59.7279582 L258.639788,59.7279582 L256.613521,54.2682956 L256.613521,54.2682956 C255.825529,55.4315227 254.831157,56.4821794 253.630407,57.4202658 L253.630407,57.4202658 L253.630407,57.4202658 C252.57975,58.2082583 251.247668,58.9399657 249.634159,59.6153878 L249.634159,59.6153878 L249.634159,59.6153878 C248.020651,60.2532866 246.125716,60.5722359 243.949356,60.5722359 L243.949356,60.5722359 L243.949356,60.5722359 C240.834909,60.5722359 238.208267,60.0093841 236.06943,58.8836805 L236.06943,58.8836805 L236.06943,58.8836805 C233.89307,57.7579769 232.129468,56.2570387 230.778623,54.380866 L230.778623,54.380866 L230.778623,54.380866 C229.465303,52.4671698 228.508454,50.2532861 227.908079,47.7392146 L227.908079,47.7392146 L227.908079,47.7392146 C227.307704,45.1876198 227.007516,42.4859311 227.007516,39.6341486 L227.007516,39.6341486 L227.007516,39.6341486 C227.007516,36.7823661 227.307704,34.0806774 227.908079,31.5290825 L227.908079,31.5290825 L227.908079,31.5290825 C228.508454,28.9399642 229.465303,26.6697952 230.778623,24.7185756 L230.778623,24.7185756 L230.778623,24.7185756 C232.129468,22.7298325 233.89307,21.1538475 236.06943,19.9906204 L236.06943,19.9906204 L236.06943,19.9906204 C238.208267,18.7898699 240.834909,18.1894946 243.949356,18.1894946 Z M247.213896,52.2983143 L247.213896,52.2983143 L247.213896,52.2983143 C249.765491,52.2983143 251.904328,51.285181 253.630407,49.2589145 L253.630407,49.2589145 L253.630407,49.2589145 C255.394009,47.1951246 256.27581,43.9868692 256.27581,39.6341486 L256.27581,39.6341486 L256.27581,39.6341486 C256.27581,35.3189514 255.394009,32.0356491 253.630407,29.7842419 L253.630407,29.7842419 L253.630407,29.7842419 C251.904328,27.5328346 249.765491,26.407131 247.213896,26.407131 L247.213896,26.407131 L247.213896,26.407131 C245.975622,26.407131 244.793633,26.6885569 243.66793,27.2514087 L243.66793,27.2514087 L243.66793,27.2514087 C242.57975,27.851784 241.622902,28.6960617 240.797386,29.7842419 L240.797386,29.7842419 L240.797386,29.7842419 C240.009393,30.8724221 239.352733,32.2607899 238.827404,33.9493453 L238.827404,33.9493453 L238.827404,33.9493453 C238.339599,35.6003773 238.095697,37.4953117 238.095697,39.6341486 L238.095697,39.6341486 L238.095697,39.6341486 C238.095697,41.7729854 238.339599,43.6491582 238.827404,45.2626667 L238.827404,45.2626667 L238.827404,45.2626667 C239.352733,46.8761752 240.009393,48.2082578 240.797386,49.2589145 L240.797386,49.2589145 L240.797386,49.2589145 C241.622902,50.3095712 242.57975,51.078802 243.66793,51.566607 L243.66793,51.566607 L243.66793,51.566607 C244.793633,52.0544119 245.975622,52.2983143 247.213896,52.2983143 Z M297.363993,60.5722359 L297.363993,60.5722359 L297.363993,60.5722359 C293.011272,60.5722359 289.40902,60.0093841 286.557238,58.8836805 L286.557238,58.8836805 L286.557238,58.8836805 C283.705455,57.7204534 281.435286,56.1632301 279.746731,54.2120105 L279.746731,54.2120105 L279.746731,54.2120105 C278.020652,52.2607909 276.819901,50.0093836 276.144479,47.4577887 L276.144479,47.4577887 L276.144479,47.4577887 C275.469057,44.9061939 275.131346,42.2232669 275.131346,39.4090078 L275.131346,39.4090078 L275.131346,39.4090078 C275.131346,36.8949364 275.469057,34.3621033 276.144479,31.8105084 L276.144479,31.8105084 L276.144479,31.8105084 C276.819901,29.296437 277.908082,27.026268 279.40902,25.0000015 L279.40902,25.0000015 L279.40902,25.0000015 C280.909958,22.973735 282.879939,21.3414647 285.318964,20.1031907 L285.318964,20.1031907 L285.318964,20.1031907 C287.720465,18.8273933 290.647294,18.1894946 294.099452,18.1894946 L294.099452,18.1894946 L294.099452,18.1894946 C297.776751,18.1894946 300.834912,18.8273933 303.273937,20.1031907 L303.273937,20.1031907 L303.273937,20.1031907 C305.750485,21.3414647 307.720466,22.973735 309.183881,25.0000015 L309.183881,25.0000015 L309.183881,25.0000015 C310.647295,27.026268 311.67919,29.296437 312.279566,31.8105084 L312.279566,31.8105084 L312.279566,31.8105084 C312.879941,34.3621033 313.180128,36.8949364 313.180128,39.4090078 L313.180128,39.4090078 L313.180128,42.9549743 L285.318964,42.9549743 L285.318964,42.9549743 C285.318964,45.7692333 286.313335,48.0956875 288.302078,49.9343367 L288.302078,49.9343367 L288.302078,49.9343367 C290.328345,51.7729859 293.105081,52.6923106 296.632285,52.6923106 L296.632285,52.6923106 L296.632285,52.6923106 C298.621028,52.6923106 300.459678,52.4859316 302.148233,52.0731736 L302.148233,52.0731736 L302.148233,52.0731736 C303.836788,51.6604156 305.281441,51.1913724 306.482192,50.6660441 L306.482192,50.6660441 L306.482192,50.6660441 C307.87056,50.1031922 309.127595,49.4277701 310.253299,48.6397775 L310.253299,48.6397775 L310.253299,57.4202658 L310.253299,57.4202658 C310.253299,57.4953127 309.915588,57.68293 309.240166,57.9831176 L309.240166,57.9831176 L309.240166,57.9831176 C308.564744,58.3208287 307.645419,58.6773015 306.482192,59.052536 L306.482192,59.052536 L306.482192,59.052536 C305.318965,59.465294 303.949359,59.8217668 302.373374,60.1219545 L302.373374,60.1219545 L302.373374,60.1219545 C300.797389,60.4221421 299.127595,60.5722359 297.363993,60.5722359 Z M285.318964,35.4690452 L303.161366,35.4690452 L303.161366,35.4690452 C303.161366,34.5684823 303.048796,33.5741107 302.823655,32.4859306 L302.823655,32.4859306 L302.823655,32.4859306 C302.598514,31.4352739 302.148233,30.4221406 301.472811,29.4465308 L301.472811,29.4465308 L301.472811,29.4465308 C300.834912,28.5084444 299.915587,27.7204519 298.714837,27.0825532 L298.714837,27.0825532 L298.714837,27.0825532 C297.55161,26.4821779 296.013148,26.1819903 294.099452,26.1819903 L294.099452,26.1819903 L294.099452,26.1819903 C292.485944,26.1819903 291.116337,26.4821779 289.990634,27.0825532 L289.990634,27.0825532 L289.990634,27.0825532 C288.86493,27.7204519 287.964367,28.5084444 287.288945,29.4465308 L287.288945,29.4465308 L287.288945,29.4465308 C286.576,30.4221406 286.069433,31.4352739 285.769245,32.4859306 L285.769245,32.4859306 L285.769245,32.4859306 C285.469058,33.5741107 285.318964,34.5684823 285.318964,35.4690452 L285.318964,35.4690452 Z M346.44467,18.5272057 L346.44467,29.3339604 L346.44467,29.3339604 C345.24392,29.0712963 344.15574,28.9212024 343.18013,28.883679 L343.18013,28.883679 L343.18013,28.883679 C342.20452,28.8461555 341.303957,28.8649173 340.478441,28.9399642 L340.478441,28.9399642 L340.478441,28.9399642 C338.789886,29.0150111 337.401518,29.3714839 336.313338,30.0093826 L336.313338,30.0093826 L336.313338,30.0093826 C335.225158,30.6472813 334.399642,31.4727973 333.83679,32.4859306 L333.83679,32.4859306 L333.83679,32.4859306 C333.273938,33.5365873 332.879942,34.6998144 332.654801,35.9756118 L332.654801,35.9756118 L332.654801,35.9756118 C332.42966,37.2514092 332.31709,38.5834919 332.31709,39.9718597 L332.31709,39.9718597 L332.31709,59.7279582 L321.679191,59.7279582 L321.679191,19.5403389 L329.502831,19.5403389 L331.135101,28.3771124 L331.135101,28.3771124 C331.135101,28.3771124 331.210148,28.0769247 331.360242,27.4765495 L331.360242,27.4765495 L331.360242,27.4765495 C331.472812,26.8761742 331.735476,26.1444668 332.148234,25.2814274 L332.148234,25.2814274 L332.148234,25.2814274 C332.523469,24.3808645 333.086321,23.4427782 333.83679,22.4671684 L333.83679,22.4671684 L333.83679,22.4671684 C334.587259,21.529082 335.525345,20.6848043 336.651049,19.9343352 L336.651049,19.9343352 L336.651049,19.9343352 C337.776753,19.1838661 339.146359,18.6585378 340.759867,18.3583501 L340.759867,18.3583501 L340.759867,18.3583501 C342.335852,18.0581625 344.230787,18.1144477 346.44467,18.5272057 L346.44467,18.5272057 Z M379.990638,23.0300202 L376.444672,30.9662307 L376.444672,30.9662307 C374.68107,29.6153863 372.748612,28.5834914 370.647298,27.8705457 L370.647298,27.8705457 L370.647298,27.8705457 C368.545985,27.1951236 366.782383,26.8574125 365.356491,26.8574125 L365.356491,26.8574125 L365.356491,26.8574125 C364.005647,26.8574125 362.936228,27.1013149 362.148236,27.5891198 L362.148236,27.5891198 L362.148236,27.5891198 C361.360243,28.0394013 360.966247,28.883679 360.966247,30.121953 L360.966247,30.121953 L360.966247,30.121953 C360.966247,31.1726097 361.454052,31.9981257 362.429662,32.5985009 L362.429662,32.5985009 L362.429662,32.5985009 C363.442795,33.2363997 364.681069,33.8367749 366.144484,34.3996267 L366.144484,34.3996267 L366.144484,34.3996267 C367.607899,34.9624785 369.202645,35.5440921 370.928724,36.1444673 L370.928724,36.1444673 L370.928724,36.1444673 C372.692327,36.7448426 374.305835,37.5328351 375.76925,38.5084449 L375.76925,38.5084449 L375.76925,38.5084449 C377.232664,39.4840548 378.470938,40.703567 379.484072,42.1669817 L379.484072,42.1669817 L379.484072,42.1669817 C380.459682,43.6679199 380.947486,45.581616 380.947486,47.9080702 L380.947486,47.9080702 L380.947486,47.9080702 C380.947486,50.121954 380.55349,52.0168884 379.765498,53.5928735 L379.765498,53.5928735 L379.765498,53.5928735 C378.939982,55.206382 377.851801,56.5384646 376.500957,57.5891213 L376.500957,57.5891213 L376.500957,57.5891213 C375.150113,58.6022546 373.611651,59.3527237 371.885572,59.8405286 L371.885572,59.8405286 L371.885572,59.8405286 C370.159493,60.3283335 368.377129,60.5722359 366.53848,60.5722359 L366.53848,60.5722359 L366.53848,60.5722359 C365.225159,60.5722359 363.81803,60.4409038 362.317092,60.1782397 L362.317092,60.1782397 L362.317092,60.1782397 C360.816153,59.878052 359.352739,59.4277706 357.926847,58.8273953 L357.926847,58.8273953 L357.926847,58.8273953 C356.463433,58.22702 355.056303,57.4953127 353.705459,56.6322732 L353.705459,56.6322732 L353.705459,56.6322732 C352.392138,55.7692338 351.228911,54.7748623 350.215778,53.6491586 L350.215778,53.6491586 L353.705459,45.9380888 L353.705459,45.9380888 C355.544108,47.9268319 357.514089,49.4465318 359.615403,50.4971885 L359.615403,50.4971885 L359.615403,50.4971885 C361.716716,51.5103218 363.630412,52.0168884 365.356491,52.0168884 L365.356491,52.0168884 L365.356491,52.0168884 C366.819906,52.0168884 368.245797,51.7542242 369.634165,51.2288959 L369.634165,51.2288959 L369.634165,51.2288959 C370.985009,50.7035675 371.679193,49.8030046 371.716717,48.5272072 L371.716717,48.5272072 L371.716717,48.5272072 C371.791764,47.3264566 371.341482,46.3508468 370.365872,45.6003778 L370.365872,45.6003778 L370.365872,45.6003778 C369.390263,44.8123852 368.17075,44.1369631 366.707336,43.5741112 L366.707336,43.5741112 L366.707336,43.5741112 C365.243921,43.0112594 363.630412,42.4108842 361.86681,41.7729854 L361.86681,41.7729854 L361.86681,41.7729854 C360.140731,41.1726102 358.545984,40.4033794 357.08257,39.465293 L357.08257,39.465293 L357.08257,39.465293 C355.619155,38.5272067 354.380881,37.3452179 353.367748,35.9193266 L353.367748,35.9193266 L353.367748,35.9193266 C352.392138,34.4934354 351.923095,32.6547861 351.960618,30.4033789 L351.960618,30.4033789 L351.960618,30.4033789 C351.960618,28.264542 352.335853,26.407131 353.086322,24.831146 L353.086322,24.831146 L353.086322,24.831146 C353.874314,23.2926843 354.887448,22.0356486 356.125722,21.0600388 L356.125722,21.0600388 L356.125722,21.0600388 C357.401519,20.084429 358.864934,19.3714834 360.515966,18.9212019 L360.515966,18.9212019 L360.515966,18.9212019 C362.166998,18.433397 363.893077,18.1894946 365.694202,18.1894946 L365.694202,18.1894946 L365.694202,18.1894946 C366.744859,18.1894946 367.889324,18.302065 369.127598,18.5272057 L369.127598,18.5272057 L369.127598,18.5272057 C370.403396,18.7148229 371.679193,19.0337723 372.954991,19.4840538 L372.954991,19.4840538 L372.954991,19.4840538 C374.230788,19.8968117 375.487824,20.3846167 376.726098,20.9474685 L376.726098,20.9474685 L376.726098,20.9474685 C377.964372,21.5478437 379.052552,22.2420276 379.990638,23.0300202 L379.990638,23.0300202 Z M409.146362,60.5722359 L409.146362,60.5722359 L409.146362,60.5722359 C404.793641,60.5722359 401.210152,60.0093841 398.395893,58.8836805 L398.395893,58.8836805 L398.395893,58.8836805 C395.54411,57.7204534 393.255179,56.1632301 391.5291,54.2120105 L391.5291,54.2120105 L391.5291,54.2120105 C389.840545,52.2607909 388.658556,50.0093836 387.983134,47.4577887 L387.983134,47.4577887 L387.983134,47.4577887 C387.307712,44.9061939 386.970001,42.2232669 386.970001,39.4090078 L386.970001,39.4090078 L386.970001,39.4090078 C386.970001,36.8949364 387.307712,34.3621033 387.983134,31.8105084 L387.983134,31.8105084 L387.983134,31.8105084 C388.658556,29.296437 389.746736,27.026268 391.247675,25.0000015 L391.247675,25.0000015 L391.247675,25.0000015 C392.748613,22.973735 394.699832,21.3414647 397.101333,20.1031907 L397.101333,20.1031907 L397.101333,20.1031907 C399.540358,18.8273933 402.485949,18.1894946 405.938107,18.1894946 L405.938107,18.1894946 L405.938107,18.1894946 C409.615405,18.1894946 412.673567,18.8273933 415.112591,20.1031907 L415.112591,20.1031907 L415.112591,20.1031907 C417.551616,21.3414647 419.502835,22.973735 420.96625,25.0000015 L420.96625,25.0000015 L420.96625,25.0000015 C422.467188,27.026268 423.517845,29.296437 424.11822,31.8105084 L424.11822,31.8105084 L424.11822,31.8105084 C424.718596,34.3621033 425.018783,36.8949364 425.018783,39.4090078 L425.018783,39.4090078 L425.018783,42.9549743 L397.101333,42.9549743 L397.101333,42.9549743 C397.101333,45.7692333 398.114467,48.0956875 400.140733,49.9343367 L400.140733,49.9343367 L400.140733,49.9343367 C402.167,51.7729859 404.943735,52.6923106 408.47094,52.6923106 L408.47094,52.6923106 L408.47094,52.6923106 C410.459683,52.6923106 412.298332,52.4859316 413.986888,52.0731736 L413.986888,52.0731736 L413.986888,52.0731736 C415.675443,51.6604156 417.120096,51.1913724 418.320847,50.6660441 L418.320847,50.6660441 L418.320847,50.6660441 C419.671691,50.1031922 420.928727,49.4277701 422.091954,48.6397775 L422.091954,48.6397775 L422.091954,57.4202658 L422.091954,57.4202658 C422.091954,57.4953127 421.754243,57.68293 421.078821,57.9831176 L421.078821,57.9831176 L421.078821,57.9831176 C420.403398,58.3208287 419.484074,58.6773015 418.320847,59.052536 L418.320847,59.052536 L418.320847,59.052536 C417.15762,59.465294 415.788013,59.8217668 414.212028,60.1219545 L414.212028,60.1219545 L414.212028,60.1219545 C412.636043,60.4221421 410.947488,60.5722359 409.146362,60.5722359 Z M397.101333,35.4690452 L415.000021,35.4690452 L415.000021,35.4690452 C415.000021,34.5684823 414.887451,33.5741107 414.66231,32.4859306 L414.66231,32.4859306 L414.66231,32.4859306 C414.399646,31.4352739 413.949364,30.4221406 413.311466,29.4465308 L413.311466,29.4465308 L413.311466,29.4465308 C412.636043,28.5084444 411.716719,27.7204519 410.553492,27.0825532 L410.553492,27.0825532 L410.553492,27.0825532 C409.352741,26.4821779 407.81428,26.1819903 405.938107,26.1819903 L405.938107,26.1819903 L405.938107,26.1819903 C404.324598,26.1819903 402.954992,26.4821779 401.829289,27.0825532 L401.829289,27.0825532 L401.829289,27.0825532 C400.666062,27.7204519 399.746737,28.5084444 399.071315,29.4465308 L399.071315,29.4465308 L399.071315,29.4465308 C398.395893,30.4221406 397.908088,31.4352739 397.6079,32.4859306 L397.6079,32.4859306 L397.6079,32.4859306 C397.270189,33.5741107 397.101333,34.5684823 397.101333,35.4690452 L397.101333,35.4690452 Z" id="Shape"></path>
            </g>
            <g id="36e76dbe-1f3b-4f36-ae00-7d36cffe633a" transform="translate(0.623309, 0.969660)">
                <path d="M53.4125645,4.26168506 C46.5102162,0.869816579 40.4433496,0.783459192 40.0937582,0.782418741 L39.899194,0.78033784 C37.0129844,0.78033784 11.7404429,1.61998136 11.6416001,30.6266996 L0.814672705,54.2137113 L2.36702478,53.8495537 C2.40344055,53.8401896 6.03149128,52.9995057 8.8323839,52.9995057 C10.8487769,52.9995057 11.3346672,53.4312926 11.4366314,53.5634298 C12.211767,54.5789095 12.096277,57.0250085 11.9839083,59.3909928 C11.8195172,62.8671378 11.6332765,66.8073236 13.8213438,69.1004764 C14.9762438,70.3115608 16.6857039,70.926467 18.8997825,70.926467 L18.9018634,70.926467 C21.1128206,70.9254265 23.8398412,70.3438147 27.2171434,69.1493776 L29.3802399,90.7803378 L60.8497043,90.7803378 L60.3554904,68.1110081 C71.7473824,63.4060911 73.3257457,50.9810318 73.4703683,45.800629 C73.6160314,40.5931745 73.2726828,35.8060619 72.4663337,31.4288869 C73.1332624,29.3968871 73.5047032,27.2337906 73.5047032,24.9822558 C73.5036628,13.7620382 64.5485057,4.61543821 53.4125645,4.26168506 Z M71.6995217,27.8851126 C71.5239326,29.0449689 71.2411051,30.1860315 70.8546759,31.2936283 C68.2358621,38.7796693 61.1202215,44.1733645 52.750838,44.1733645 C42.1684164,44.1733645 33.5586889,35.563637 33.5586889,24.9812154 C33.5586889,14.3987938 42.1684164,5.78802587 52.750838,5.78802587 C52.8122246,5.78802587 52.8704898,5.79634948 52.9308359,5.79738993 C54.3063114,5.81091578 55.6443307,5.97322606 56.9376106,6.26143083 C65.5119628,8.17898102 71.9440275,15.8366964 71.9440275,24.9801749 C71.9361468,25.9532793 71.8544101,26.9243817 71.6995217,27.8851126 Z" id="Shape"></path>
                <path d="M46.4124138,39.280126 L52.750838,33.4504821 L59.0892622,39.280126 L59.0892622,11.6800968 L46.4124138,11.6800968 L46.4124138,39.280126 Z M49.3516864,17.9529726 L50.9123621,17.9529726 L50.9123621,28.9432507 L49.3516864,28.9432507 L49.3516864,17.9529726 Z" id="Shape"></path>
            </g>
        </g>
    </g>
</svg>