<svg data-v-423bf9ae="" xmlns="http://www.w3.org/2000/svg" viewBox="0 0 518 90" class="iconLeft"><!----><!----><!----><g data-v-423bf9ae="" id="b41d76fb-bedc-41c3-8a63-8b5385b9f495" fill="white" transform="matrix(5.628518104553223,0,0,5.628518104553223,87.2303466796875,15.056285858154297)"><path d="M6.50 6.94L7.66 10.50L5.47 10.50L4.51 7.53L4.51 7.53Q4.45 7.36 4.34 7.21L4.34 7.21L4.34 7.21Q4.24 7.10 4.09 6.99L4.09 6.99L4.09 6.99Q3.95 6.89 3.74 6.89L3.74 6.89L2.91 6.89L2.91 10.50L0.97 10.50L0.97 1.36L3.57 1.36L3.57 1.36Q4.28 1.36 4.91 1.47L4.91 1.47L4.91 1.47Q5.54 1.58 6.02 1.88L6.02 1.88L6.02 1.88Q6.50 2.18 6.77 2.70L6.77 2.70L6.77 2.70Q7.04 3.22 7.04 4.03L7.04 4.03L7.04 4.03Q7.04 4.66 6.78 5.04L6.78 5.04L6.78 5.04Q6.51 5.42 6.19 5.63L6.19 5.63L6.19 5.63Q5.87 5.84 5.60 5.91L5.60 5.91L5.60 5.91Q5.33 5.98 5.33 5.98L5.33 5.98L5.33 5.98Q5.67 5.98 5.89 6.13L5.89 6.13L5.89 6.13Q6.12 6.29 6.25 6.47L6.25 6.47L6.25 6.47Q6.38 6.65 6.44 6.80L6.44 6.80L6.44 6.80Q6.50 6.94 6.50 6.94L6.50 6.94ZM2.91 5.26L3.40 5.26L3.40 5.26Q3.71 5.26 4.00 5.21L4.00 5.21L4.00 5.21Q4.30 5.15 4.53 5.01L4.53 5.01L4.53 5.01Q4.76 4.87 4.90 4.62L4.90 4.62L4.90 4.62Q5.04 4.37 5.04 3.99L5.04 3.99L5.04 3.99Q5.04 3.61 4.92 3.40L4.92 3.40L4.92 3.40Q4.80 3.19 4.58 3.09L4.58 3.09L4.58 3.09Q4.35 2.98 4.05 2.95L4.05 2.95L4.05 2.95Q3.75 2.93 3.40 2.93L3.40 2.93L2.91 2.93L2.91 5.26ZM12.39 10.65L12.39 10.65L12.39 10.65Q11.23 10.65 10.47 10.35L10.47 10.35L10.47 10.35Q9.72 10.04 9.26 9.52L9.26 9.52L9.26 9.52Q8.81 9.00 8.62 8.32L8.62 8.32L8.62 8.32Q8.44 7.64 8.44 6.89L8.44 6.89L8.44 6.89Q8.44 6.22 8.62 5.54L8.62 5.54L8.62 5.54Q8.81 4.87 9.21 4.33L9.21 4.33L9.21 4.33Q9.60 3.79 10.25 3.46L10.25 3.46L10.25 3.46Q10.89 3.12 11.82 3.12L11.82 3.12L11.82 3.12Q12.80 3.12 13.45 3.46L13.45 3.46L13.45 3.46Q14.10 3.79 14.49 4.33L14.49 4.33L14.49 4.33Q14.88 4.87 15.04 5.54L15.04 5.54L15.04 5.54Q15.20 6.22 15.20 6.89L15.20 6.89L15.20 7.52L10.25 7.52L10.25 7.52Q10.25 8.27 10.79 8.76L10.79 8.76L10.79 8.76Q11.33 9.25 12.26 9.25L12.26 9.25L12.26 9.25Q12.80 9.25 13.24 9.14L13.24 9.14L13.24 9.14Q13.69 9.03 14.01 8.89L14.01 8.89L14.01 8.89Q14.38 8.74 14.69 8.53L14.69 8.53L14.69 10.09L14.69 10.09Q14.69 10.11 14.50 10.19L14.50 10.19L14.50 10.19Q14.32 10.28 14.01 10.38L14.01 10.38L14.01 10.38Q13.71 10.49 13.29 10.57L13.29 10.57L13.29 10.57Q12.87 10.65 12.39 10.65ZM10.25 6.19L13.43 6.19L13.43 6.19Q13.43 5.95 13.36 5.66L13.36 5.66L13.36 5.66Q13.30 5.38 13.13 5.12L13.13 5.12L13.13 5.12Q12.95 4.87 12.63 4.70L12.63 4.70L12.63 4.70Q12.32 4.54 11.82 4.54L11.82 4.54L11.82 4.54Q11.38 4.54 11.08 4.70L11.08 4.70L11.08 4.70Q10.78 4.87 10.60 5.12L10.60 5.12L10.60 5.12Q10.42 5.38 10.33 5.66L10.33 5.66L10.33 5.66Q10.25 5.95 10.25 6.19L10.25 6.19ZM24.93 3.12L24.93 3.12L24.93 3.12Q25.69 3.12 26.14 3.39L26.14 3.39L26.14 3.39Q26.60 3.65 26.84 4.09L26.84 4.09L26.84 4.09Q27.08 4.52 27.15 5.08L27.15 5.08L27.15 5.08Q27.23 5.64 27.23 6.24L27.23 6.24L27.23 10.50L25.35 10.50L25.35 10.49L25.34 6.19L25.34 6.19Q25.34 5.84 25.30 5.54L25.30 5.54L25.30 5.54Q25.26 5.25 25.14 5.04L25.14 5.04L25.14 5.04Q25.02 4.83 24.81 4.71L24.81 4.71L24.81 4.71Q24.60 4.59 24.28 4.59L24.28 4.59L24.28 4.59Q23.86 4.59 23.58 4.79L23.58 4.79L23.58 4.79Q23.30 4.98 23.14 5.29L23.14 5.29L23.14 5.29Q22.99 5.59 22.93 5.94L22.93 5.94L22.93 5.94Q22.86 6.29 22.86 6.59L22.86 6.59L22.86 10.50L21.01 10.50L21.01 10.49L21 10.49L21 6.19L21 6.19Q21 5.84 20.95 5.54L20.95 5.54L20.95 5.54Q20.90 5.25 20.78 5.03L20.78 5.03L20.78 5.03Q20.65 4.82 20.43 4.70L20.43 4.70L20.43 4.70Q20.20 4.58 19.85 4.58L19.85 4.58L19.85 4.58Q19.46 4.58 19.21 4.77L19.21 4.77L19.21 4.77Q18.96 4.97 18.80 5.27L18.80 5.27L18.80 5.27Q18.65 5.57 18.59 5.93L18.59 5.93L18.59 5.93Q18.52 6.29 18.52 6.59L18.52 6.59L18.52 10.50L16.65 10.50L16.65 3.29L18.06 3.29L18.37 4.40L18.37 4.40Q18.37 4.40 18.49 4.20L18.49 4.20L18.49 4.20Q18.62 4.00 18.87 3.77L18.87 3.77L18.87 3.77Q19.12 3.53 19.51 3.33L19.51 3.33L19.51 3.33Q19.89 3.12 20.43 3.12L20.43 3.12L20.43 3.12Q21.13 3.12 21.56 3.32L21.56 3.32L21.56 3.32Q21.99 3.51 22.25 3.75L22.25 3.75L22.25 3.75Q22.54 4.03 22.68 4.38L22.68 4.38L22.68 4.38Q22.71 4.34 22.83 4.14L22.83 4.14L22.83 4.14Q22.96 3.95 23.23 3.72L23.23 3.72L23.23 3.72Q23.49 3.49 23.91 3.30L23.91 3.30L23.91 3.30Q24.33 3.12 24.93 3.12ZM31.15 10.50L29.26 10.50L29.26 3.29L31.15 3.29L31.15 10.50ZM31.25 1.02L31.25 1.02L31.25 1.02Q31.25 1.47 30.94 1.78L30.94 1.78L30.94 1.78Q30.63 2.09 30.20 2.09L30.20 2.09L30.20 2.09Q29.75 2.09 29.44 1.78L29.44 1.78L29.44 1.78Q29.13 1.47 29.13 1.02L29.13 1.02L29.13 1.02Q29.13 0.59 29.44 0.29L29.44 0.29L29.44 0.29Q29.75-0.01 30.20-0.01L30.20-0.01L30.20-0.01Q30.63-0.01 30.94 0.29L30.94 0.29L30.94 0.29Q31.25 0.59 31.25 1.02ZM37.45 3.12L37.45 3.12L37.45 3.12Q38.09 3.12 38.56 3.34L38.56 3.34L38.56 3.34Q39.02 3.56 39.32 3.93L39.32 3.93L39.32 3.93Q39.62 4.31 39.76 4.83L39.76 4.83L39.76 4.83Q39.90 5.35 39.90 5.95L39.90 5.95L39.90 10.50L38.02 10.50L38.02 6.58L38.02 6.58Q38.02 5.54 37.74 5.05L37.74 5.05L37.74 5.05Q37.46 4.56 36.78 4.56L36.78 4.56L36.78 4.56Q35.95 4.56 35.55 5.25L35.55 5.25L35.55 5.25Q35.15 5.94 35.15 7.06L35.15 7.06L35.15 10.50L33.28 10.50L33.28 3.29L34.68 3.29L35.06 4.27L35.06 4.27Q35.20 4.12 35.36 3.91L35.36 3.91L35.36 3.91Q35.53 3.71 35.79 3.54L35.79 3.54L35.79 3.54Q36.05 3.36 36.45 3.24L36.45 3.24L36.45 3.24Q36.85 3.12 37.45 3.12ZM44.23 3.12L44.23 3.12L44.23 3.12Q44.76 3.12 45.17 3.30L45.17 3.30L45.17 3.30Q45.58 3.47 45.86 3.67L45.86 3.67L45.86 3.67Q46.19 3.92 46.42 4.21L46.42 4.21L46.42 1.55L48.30 1.55L48.30 10.50L46.84 10.50L46.48 9.53L46.48 9.53Q46.27 9.84 45.95 10.09L45.95 10.09L45.95 10.09Q45.67 10.30 45.24 10.48L45.24 10.48L45.24 10.48Q44.81 10.65 44.23 10.65L44.23 10.65L44.23 10.65Q43.40 10.65 42.83 10.35L42.83 10.35L42.83 10.35Q42.25 10.05 41.89 9.55L41.89 9.55L41.89 9.55Q41.54 9.04 41.38 8.37L41.38 8.37L41.38 8.37Q41.22 7.69 41.22 6.93L41.22 6.93L41.22 6.93Q41.22 6.17 41.38 5.49L41.38 5.49L41.38 5.49Q41.54 4.80 41.89 4.28L41.89 4.28L41.89 4.28Q42.25 3.75 42.83 3.44L42.83 3.44L42.83 3.44Q43.40 3.12 44.23 3.12ZM44.81 9.18L44.81 9.18L44.81 9.18Q45.49 9.18 45.95 8.64L45.95 8.64L45.95 8.64Q46.42 8.09 46.42 6.93L46.42 6.93L46.42 6.93Q46.42 5.78 45.95 5.18L45.95 5.18L45.95 5.18Q45.49 4.58 44.81 4.58L44.81 4.58L44.81 4.58Q44.48 4.58 44.18 4.73L44.18 4.73L44.18 4.73Q43.89 4.89 43.67 5.18L43.67 5.18L43.67 5.18Q43.46 5.47 43.32 5.92L43.32 5.92L43.32 5.92Q43.19 6.36 43.19 6.93L43.19 6.93L43.19 6.93Q43.19 7.50 43.32 7.93L43.32 7.93L43.32 7.93Q43.46 8.36 43.67 8.64L43.67 8.64L43.67 8.64Q43.89 8.92 44.18 9.05L44.18 9.05L44.18 9.05Q44.48 9.18 44.81 9.18ZM53.72 10.65L53.72 10.65L53.72 10.65Q52.56 10.65 51.80 10.35L51.80 10.35L51.80 10.35Q51.04 10.04 50.59 9.52L50.59 9.52L50.59 9.52Q50.13 9.00 49.95 8.32L49.95 8.32L49.95 8.32Q49.77 7.64 49.77 6.89L49.77 6.89L49.77 6.89Q49.77 6.22 49.95 5.54L49.95 5.54L49.95 5.54Q50.13 4.87 50.53 4.33L50.53 4.33L50.53 4.33Q50.93 3.79 51.58 3.46L51.58 3.46L51.58 3.46Q52.22 3.12 53.14 3.12L53.14 3.12L53.14 3.12Q54.12 3.12 54.77 3.46L54.77 3.46L54.77 3.46Q55.43 3.79 55.82 4.33L55.82 4.33L55.82 4.33Q56.21 4.87 56.37 5.54L56.37 5.54L56.37 5.54Q56.53 6.22 56.53 6.89L56.53 6.89L56.53 7.52L51.58 7.52L51.58 7.52Q51.58 8.27 52.11 8.76L52.11 8.76L52.11 8.76Q52.65 9.25 53.59 9.25L53.59 9.25L53.59 9.25Q54.12 9.25 54.57 9.14L54.57 9.14L54.57 9.14Q55.02 9.03 55.34 8.89L55.34 8.89L55.34 8.89Q55.71 8.74 56.01 8.53L56.01 8.53L56.01 10.09L56.01 10.09Q56.01 10.11 55.83 10.19L55.83 10.19L55.83 10.19Q55.65 10.28 55.34 10.38L55.34 10.38L55.34 10.38Q55.03 10.49 54.61 10.57L54.61 10.57L54.61 10.57Q54.19 10.65 53.72 10.65ZM51.58 6.19L54.75 6.19L54.75 6.19Q54.75 5.95 54.69 5.66L54.69 5.66L54.69 5.66Q54.63 5.38 54.45 5.12L54.45 5.12L54.45 5.12Q54.28 4.87 53.96 4.70L53.96 4.70L53.96 4.70Q53.65 4.54 53.14 4.54L53.14 4.54L53.14 4.54Q52.71 4.54 52.41 4.70L52.41 4.70L52.41 4.70Q52.11 4.87 51.93 5.12L51.93 5.12L51.93 5.12Q51.74 5.38 51.66 5.66L51.66 5.66L51.66 5.66Q51.58 5.95 51.58 6.19L51.58 6.19ZM62.44 3.18L62.44 5.10L62.44 5.10Q62.12 5.03 61.86 5.02L61.86 5.02L61.86 5.02Q61.60 5.01 61.38 5.03L61.38 5.03L61.38 5.03Q60.93 5.05 60.64 5.22L60.64 5.22L60.64 5.22Q60.35 5.39 60.20 5.66L60.20 5.66L60.20 5.66Q60.05 5.94 59.99 6.28L59.99 6.28L59.99 6.28Q59.93 6.62 59.93 6.99L59.93 6.99L59.93 10.50L58.04 10.50L58.04 3.36L59.43 3.36L59.72 4.93L59.72 4.93Q59.72 4.93 59.76 4.77L59.76 4.77L59.76 4.77Q59.79 4.61 59.90 4.38L59.90 4.38L59.90 4.38Q60.00 4.14 60.20 3.88L60.20 3.88L60.20 3.88Q60.40 3.63 60.70 3.43L60.70 3.43L60.70 3.43Q61.00 3.23 61.43 3.15L61.43 3.15L61.43 3.15Q61.85 3.07 62.44 3.18L62.44 3.18ZM68.40 3.98L67.77 5.39L67.77 5.39Q67.30 5.03 66.74 4.84L66.74 4.84L66.74 4.84Q66.18 4.66 65.80 4.66L65.80 4.66L65.80 4.66Q65.44 4.66 65.23 4.79L65.23 4.79L65.23 4.79Q65.02 4.91 65.02 5.24L65.02 5.24L65.02 5.24Q65.02 5.52 65.28 5.68L65.28 5.68L65.28 5.68Q65.55 5.85 65.94 6.00L65.94 6.00L65.94 6.00Q66.33 6.15 66.79 6.31L66.79 6.31L66.79 6.31Q67.26 6.47 67.65 6.73L67.65 6.73L67.65 6.73Q68.04 6.99 68.31 7.38L68.31 7.38L68.31 7.38Q68.57 7.78 68.57 8.40L68.57 8.40L68.57 8.40Q68.57 8.99 68.36 9.41L68.36 9.41L68.36 9.41Q68.14 9.84 67.78 10.12L67.78 10.12L67.78 10.12Q67.42 10.39 66.96 10.52L66.96 10.52L66.96 10.52Q66.50 10.65 66.01 10.65L66.01 10.65L66.01 10.65Q65.66 10.65 65.26 10.58L65.26 10.58L65.26 10.58Q64.86 10.50 64.48 10.34L64.48 10.34L64.48 10.34Q64.09 10.18 63.73 9.95L63.73 9.95L63.73 9.95Q63.38 9.72 63.11 9.42L63.11 9.42L63.73 8.05L63.73 8.05Q64.22 8.58 64.78 8.86L64.78 8.86L64.78 8.86Q65.34 9.13 65.80 9.13L65.80 9.13L65.80 9.13Q66.19 9.13 66.56 8.99L66.56 8.99L66.56 8.99Q66.92 8.85 66.93 8.51L66.93 8.51L66.93 8.51Q66.95 8.19 66.69 7.99L66.69 7.99L66.69 7.99Q66.43 7.78 66.04 7.63L66.04 7.63L66.04 7.63Q65.65 7.48 65.18 7.31L65.18 7.31L65.18 7.31Q64.72 7.15 64.33 6.90L64.33 6.90L64.33 6.90Q63.94 6.65 63.67 6.27L63.67 6.27L63.67 6.27Q63.41 5.89 63.42 5.29L63.42 5.29L63.42 5.29Q63.42 4.72 63.62 4.30L63.62 4.30L63.62 4.30Q63.83 3.89 64.16 3.63L64.16 3.63L64.16 3.63Q64.50 3.37 64.94 3.25L64.94 3.25L64.94 3.25Q65.38 3.12 65.86 3.12L65.86 3.12L65.86 3.12Q66.14 3.12 66.47 3.18L66.47 3.18L66.47 3.18Q66.81 3.23 67.15 3.35L67.15 3.35L67.15 3.35Q67.49 3.46 67.82 3.61L67.82 3.61L67.82 3.61Q68.15 3.77 68.40 3.98L68.40 3.98ZM73.58 10.65L73.58 10.65L73.58 10.65Q72.42 10.65 71.67 10.35L71.67 10.35L71.67 10.35Q70.91 10.04 70.45 9.52L70.45 9.52L70.45 9.52Q70 9.00 69.82 8.32L69.82 8.32L69.82 8.32Q69.64 7.64 69.64 6.89L69.64 6.89L69.64 6.89Q69.64 6.22 69.82 5.54L69.82 5.54L69.82 5.54Q70 4.87 70.40 4.33L70.40 4.33L70.40 4.33Q70.80 3.79 71.44 3.46L71.44 3.46L71.44 3.46Q72.09 3.12 73.01 3.12L73.01 3.12L73.01 3.12Q73.99 3.12 74.64 3.46L74.64 3.46L74.64 3.46Q75.29 3.79 75.68 4.33L75.68 4.33L75.68 4.33Q76.08 4.87 76.24 5.54L76.24 5.54L76.24 5.54Q76.40 6.22 76.40 6.89L76.40 6.89L76.40 7.52L71.44 7.52L71.44 7.52Q71.44 8.27 71.98 8.76L71.98 8.76L71.98 8.76Q72.52 9.25 73.46 9.25L73.46 9.25L73.46 9.25Q73.99 9.25 74.44 9.14L74.44 9.14L74.44 9.14Q74.89 9.03 75.21 8.89L75.21 8.89L75.21 8.89Q75.57 8.74 75.88 8.53L75.88 8.53L75.88 10.09L75.88 10.09Q75.88 10.11 75.70 10.19L75.70 10.19L75.70 10.19Q75.52 10.28 75.21 10.38L75.21 10.38L75.21 10.38Q74.90 10.49 74.48 10.57L74.48 10.57L74.48 10.57Q74.06 10.65 73.58 10.65ZM71.44 6.19L74.62 6.19L74.62 6.19Q74.62 5.95 74.56 5.66L74.56 5.66L74.56 5.66Q74.49 5.38 74.32 5.12L74.32 5.12L74.32 5.12Q74.14 4.87 73.83 4.70L73.83 4.70L73.83 4.70Q73.51 4.54 73.01 4.54L73.01 4.54L73.01 4.54Q72.58 4.54 72.28 4.70L72.28 4.70L72.28 4.70Q71.97 4.87 71.79 5.12L71.79 5.12L71.79 5.12Q71.61 5.38 71.53 5.66L71.53 5.66L71.53 5.66Q71.44 5.95 71.44 6.19L71.44 6.19Z"></path></g><!----><g data-v-423bf9ae="" id="92079f6e-b7fd-43dc-b0c1-c0054812af23" transform="matrix(1.0404504537582397,0,0,1.0404504537582397,-12.862096786499023,-4.192141532897949)" stroke="none" fill="white"><path d="M63.336 8.096c-6.634-3.26-12.465-3.343-12.801-3.344l-.187-.002c-2.774 0-27.064.807-27.159 28.686l-10.406 22.67 1.492-.35c.035-.009 3.522-.817 6.214-.817 1.938 0 2.405.415 2.503.542.745.976.634 3.327.526 5.601-.158 3.341-.337 7.128 1.766 9.332 1.11 1.164 2.753 1.755 4.881 1.755h.002c2.125-.001 4.746-.56 7.992-1.708l2.079 20.79h30.246l-.475-21.788c10.949-4.522 12.466-16.464 12.605-21.443.14-5.005-.19-9.606-.965-13.813.641-1.953.998-4.032.998-6.196-.001-10.784-8.608-19.575-19.311-19.915zm17.576 22.705a18.227 18.227 0 0 1-.812 3.276c-2.517 7.195-9.356 12.379-17.4 12.379-10.171 0-18.446-8.275-18.446-18.446S52.529 9.563 62.7 9.563c.059 0 .115.008.173.009 1.322.013 2.608.169 3.851.446 8.241 1.843 14.423 9.203 14.423 17.991a18.482 18.482 0 0 1-.235 2.792z"></path><path d="M56.608 41.753L62.7 36.15l6.092 5.603V15.226H56.608v26.527zm2.825-20.498h1.5v10.563h-1.5V21.255z"></path></g><!----></svg>