<?xml version="1.0" encoding="UTF-8"?>
<svg width="1042px" height="586px" viewBox="0 0 1042 586" version="1.1" xmlns="http://www.w3.org/2000/svg" xmlns:xlink="http://www.w3.org/1999/xlink">
    <!-- Generator: Sketch 64 (93537) - https://sketch.com -->
    <title>Page 1</title>
    <desc>Created with Sketch.</desc>
    <defs>
        <rect id="path-1" x="0" y="0" width="268" height="379" rx="6"></rect>
        <filter x="-5.6%" y="-1.3%" width="107.5%" height="105.3%" filterUnits="objectBoundingBox" id="filter-2">
            <feOffset dx="-10" dy="10" in="SourceAlpha" result="shadowOffsetOuter1"></feOffset>
            <feComposite in="shadowOffsetOuter1" in2="SourceAlpha" operator="out" result="shadowOffsetOuter1"></feComposite>
            <feColorMatrix values="0 0 0 0 0.835294118   0 0 0 0 0.839215686   0 0 0 0 0.847058824  0 0 0 1 0" type="matrix" in="shadowOffsetOuter1"></feColorMatrix>
        </filter>
    </defs>
    <g id="Page-1" stroke="none" stroke-width="1" fill="none" fill-rule="evenodd">
        <g id="Desktop-HD" transform="translate(-109.000000, -70.000000)">
            <g id="blob" transform="translate(109.000000, 70.000000)" fill="#F1F3F5" fill-rule="nonzero">
                <path d="M705.559418,-96.4147295 C750.471797,-41.4794179 789.770128,0.37605758 805.489461,51.3874183 C821.208794,102.398779 812.787723,163.220017 799.314009,214.231378 C785.840295,265.89673 767.313939,307.752206 771.243772,399.311058 C775.73501,490.869911 803.805247,630.824157 772.366582,716.497083 C740.927916,801.516018 649.980349,831.599641 573.0679,804.131985 C496.15545,776.664329 432.716715,692.299387 373.207813,625.592223 C313.698911,559.53905 258.119842,511.143657 237.909271,447.706452 C218.260105,383.615255 233.418033,303.174263 236.225057,225.349238 C239.03208,146.870222 229.4882,71.0071725 251.944389,12.1479101 C274.400579,-47.3653441 329.418243,-88.5668278 386.120122,-135.654238 C442.822,-182.741648 501.208093,-235.060992 555.664353,-227.21309 C610.120612,-219.365189 660.647039,-151.350041 705.559418,-96.4147295 Z" id="Path" transform="translate(521.000000, 293.000000) rotate(-90.000000) translate(-521.000000, -293.000000) "></path>
            </g>
            <g id="clock" transform="translate(407.000000, 222.500000) rotate(-38.000000) translate(-407.000000, -222.500000) translate(318.000000, 133.000000)" fill-rule="nonzero">
                <circle id="Oval" fill="#E8525F" cx="88.8297197" cy="89.5845332" r="88.5"></circle>
                <path d="M89.0398732,0.913082267 C87.4635553,0.913082267 85.8972402,0.956295158 84.3412729,1.0378811 C130.9244,3.48615063 167.944417,42.1157092 167.944417,89.4130823 C167.944417,136.710455 130.9244,175.340014 84.3412729,177.788283 C85.8972402,177.869869 87.4635553,177.913082 89.0398732,177.913082 C137.807426,177.913082 177.341273,138.290319 177.341273,89.4130823 C177.341273,40.5358459 137.807426,0.913082267 89.0398732,0.913082267 Z" id="Path" fill="#EC3F4E"></path>
                <circle id="Oval" fill="#F4FBFF" cx="88.8297197" cy="89.5845332" r="69.5"></circle>
                <path d="M89.8602664,20.0236857 C87.9664955,20.0236857 86.0919193,20.105558 84.2372234,20.2588508 C119.370188,23.16584 146.99148,53.064558 146.99148,89.5235115 C146.99148,125.982465 119.370188,155.880835 84.2372234,158.788172 C86.0919193,158.941813 87.9664955,159.023686 89.8602664,159.023686 C127.623945,159.023686 158.237223,127.907335 158.237223,89.5238599 C158.237223,51.1403848 127.623945,20.0236857 89.8602664,20.0236857 Z" id="Path" fill="#DAF1F4"></path>
                <g id="Group" transform="translate(31.127884, 32.670708)" fill="#50287D">
                    <path d="M57,9.29652727 C55.5259455,9.29652727 54.3310182,8.1016 54.3310182,6.62754545 L54.3310182,2.71009091 C54.3310182,1.23603636 55.5259455,0.0411090909 57,0.0411090909 C58.4740545,0.0411090909 59.6693273,1.23603636 59.6693273,2.71009091 L59.6693273,6.62754545 C59.6693273,8.1016 58.4740545,9.29652727 57,9.29652727 L57,9.29652727 Z" id="Path"></path>
                    <path d="M92.4736909,24.1106545 C91.7903818,24.1106545 91.1074182,23.8498364 90.5861273,23.3288909 C89.5438909,22.2863091 89.5438909,20.5966909 90.5864727,19.5541091 L93.3566727,16.7842545 C94.3989091,15.7416727 96.0888727,15.7420182 97.1314545,16.7842545 C98.1736909,17.8268364 98.1736909,19.5164545 97.1311091,20.5590364 L94.3609091,23.3292364 C93.8396182,23.8498364 93.1566545,24.1106545 92.4736909,24.1106545 Z" id="Path"></path>
                    <path d="M110.999727,59.6693273 L107.082273,59.6693273 C105.607873,59.6693273 104.413291,58.4744 104.413291,57.0003455 C104.413291,55.5262909 105.608218,54.3313636 107.082273,54.3313636 L110.999727,54.3313636 C112.474127,54.3313636 113.668709,55.5262909 113.668709,57.0003455 C113.668709,58.4744 112.473782,59.6693273 110.999727,59.6693273 Z" id="Path"></path>
                    <path d="M95.038,97.9132182 C94.3550364,97.9132182 93.6717273,97.6524 93.1504364,97.1314545 L90.3805818,94.3616 C89.3383455,93.3190182 89.3383455,91.6294 90.3805818,90.5864727 C91.4231636,89.5445818 93.1127818,89.5445818 94.1557091,90.5864727 L96.9255636,93.3563273 C97.9678,94.3989091 97.9678,96.0885273 96.9255636,97.1314545 C96.4042727,97.6524 95.7209636,97.9132182 95.038,97.9132182 L95.038,97.9132182 Z" id="Path"></path>
                    <path d="M56.7091273,113.6694 C55.2350727,113.6694 54.0401455,112.474473 54.0401455,111.000418 L54.0401455,107.082964 C54.0401455,105.608564 55.2350727,104.413982 56.7091273,104.413982 C58.1831818,104.413982 59.3781091,105.608909 59.3781091,107.082964 L59.3781091,111.000418 C59.3781091,112.474473 58.1831818,113.6694 56.7091273,113.6694 L56.7091273,113.6694 Z" id="Path"></path>
                    <path d="M18.4652364,97.7073273 C17.7822727,97.7073273 17.0989636,97.4465091 16.5780182,96.9252182 C15.5354364,95.8829818 15.5357818,94.1930182 16.5780182,93.1504364 L19.3482182,90.3805818 C20.3908,89.3386909 22.0804182,89.3383455 23.123,90.3809273 C24.1652364,91.4231636 24.1652364,93.1131273 23.1226545,94.1557091 L20.3524545,96.9255636 C19.8315091,97.4468545 19.1482,97.7073273 18.4652364,97.7073273 L18.4652364,97.7073273 Z" id="Path"></path>
                    <path d="M6.62685455,59.3788 L2.7094,59.3788 C1.23534545,59.3788 0.0404181818,58.1838727 0.0404181818,56.7098182 C0.0404181818,55.2357636 1.23534545,54.0408364 2.7094,54.0408364 L6.62685455,54.0408364 C8.10090909,54.0408364 9.29583644,55.2357636 9.29583644,56.7098182 C9.29618182,58.1838727 8.10090909,59.3788 6.62685455,59.3788 Z" id="Path"></path>
                    <path d="M21.4413273,23.9051091 C20.7583636,23.9051091 20.0754,23.6446364 19.5541091,23.1233455 L16.7839091,20.3534909 C15.7416727,19.3109091 15.7413273,17.6212909 16.7835636,16.5787091 C17.8261455,15.5364727 19.5157636,15.5361273 20.5583455,16.5783636 L23.3285455,19.3485636 C24.3707818,20.3908 24.3711273,22.0807636 23.3288909,23.1233455 C22.8072545,23.6442909 22.1242909,23.9051091 21.4413273,23.9051091 Z" id="Path"></path>
                </g>
                <path d="M88.30639,93.2552284 L66.4522129,93.2552284 C65.0311252,93.2552284 63.879135,92.0304597 63.879135,90.5200297 C63.879135,89.0095996 65.0311252,87.7851849 66.4522129,87.7851849 L85.7329791,87.7851849 L85.7329791,52.9900731 C85.7329791,51.4796431 86.8849693,50.2552284 88.306057,50.2552284 C89.7271447,50.2552284 90.879135,51.4796431 90.879135,52.9900731 L90.879135,90.5200297 C90.8794679,92.0304597 89.7274777,93.2552284 88.30639,93.2552284 Z" id="Path" fill="#50287D"></path>
                <circle id="Oval" fill="#50287D" cx="88.9158944" cy="90.2863693" r="7"></circle>
            </g>
            <g id="Card" transform="translate(793.000000, 276.500000) rotate(-8.000000) translate(-793.000000, -276.500000) translate(659.000000, 87.000000)">
                <g id="Rectangle">
                    <use fill="black" fill-opacity="1" filter="url(#filter-2)" xlink:href="#path-1"></use>
                    <rect stroke="#FFFFFF" stroke-width="1" stroke-linejoin="square" fill="#FFFFFF" fill-rule="evenodd" x="0.5" y="0.5" width="267" height="378" rx="6"></rect>
                </g>
                <text id="REMINDERSE" font-family="Futura-Medium, Futura" font-size="36" font-weight="400" fill="#E8525F">
                    <tspan x="20" y="57">REMINDERSE</tspan>
                </text>
                <g id="bell" transform="translate(133.500000, 225.500000) rotate(-45.000000) translate(-133.500000, -225.500000) translate(93.000000, 185.000000)" fill-rule="nonzero">
                    <path d="M48.8553807,74.1238443 C47.9739472,74.4828507 46.9946451,74.2869591 46.3417258,73.6341922 L7.16994944,34.4623322 C6.51703008,33.8094114 6.32113888,32.8301072 6.68029839,31.9486719 C7.0394579,31.0673905 7.85564557,30.5123386 8.80232478,30.5449615 C12.3603737,30.5123386 15.8205539,29.0760052 18.3014321,26.5951218 L18.595038,26.3015152 L25.1236161,26.3015152 L54.5025253,55.6804872 L54.5025253,62.2090792 L54.2089193,62.5026858 C51.6952644,65.0163461 50.259088,68.4111339 50.259088,72.0018134 C50.2917109,72.9486485 49.7366602,73.7646841 48.8553807,74.1238443 Z" id="Path" fill="#FEA832"></path>
                    <path d="M49.410427,74.8983418 C48.5209465,75.2647783 47.5327039,75.0648324 46.8738238,74.3985556 L27.109127,54.4072675 L40.2856433,41.0796898 L55.109127,56.0731166 L55.109127,62.7368269 L54.8128406,63.0365101 C52.2762374,65.6021941 50.8269495,69.0672418 50.8269495,72.7322354 C50.8598702,73.6988236 50.2997522,74.5317482 49.410427,74.8983418 Z" id="Path" fill="#FE9923"></path>
                    <path d="M77.8758261,2.92811491 C75.1385068,0.190772789 70.7193382,0.190772789 67.9818634,2.92811491 C65.2446995,5.66530156 65.2445441,10.0846624 67.9818634,12.82216 C70.7191827,15.5595021 75.1386622,15.5593467 77.8758261,12.82216 C80.6133009,10.0848179 80.6133009,5.6656125 77.8758261,2.92811491 Z" id="Path" fill="#FEA832"></path>
                    <path d="M68.3431458,13.227265 L78.2810404,3.28932188 C81.0305142,6.03880908 81.0305142,10.4776217 78.2810404,13.227265 C75.5315666,15.9765961 71.0926195,15.9767522 68.3431458,13.227265 Z" id="Path" fill="#FE9923"></path>
                    <path d="M33.9323636,64.3922261 C29.2918877,69.032702 21.759397,69.032702 17.1189212,64.3922261 C12.4784453,59.7517503 12.4784453,52.2192596 17.1189212,47.5787837 C18.0605221,46.6371828 19.539977,46.6371828 20.481578,47.5787837 L33.9323636,61.0295693 C34.8739645,61.9711703 34.8739645,63.4506251 33.9323636,64.3922261 Z" id="Path" fill="#FEA832"></path>
                    <path d="M33.3675235,63.3664715 C28.8646869,67.812523 21.5556144,67.812523 17.0527778,63.3664715 L26.8416867,53.7010101 L33.3675235,60.1445498 C34.281196,61.0468519 34.281196,62.4643213 33.3675235,63.3664715 Z" id="Path" fill="#FE9923"></path>
                    <path d="M71.4662037,45.2592467 L54.8086954,61.9167389 L18.8873016,25.9952257 L35.5448099,9.33788742 C45.4396841,-0.556977301 61.5714834,-0.556977301 71.4662037,9.33788742 C81.360924,19.2327521 81.3610779,35.3645359 71.4662037,45.2592467 Z" id="Path" fill="#FEDB41"></path>
                    <path d="M71.3119155,45.51491 L54.6699729,62.3058262 L36.7261364,44.2012067 L71.3119155,9.30582618 C81.1975434,19.2799472 81.1975434,35.5409441 71.3119155,45.51491 Z" id="Path" fill="#FCBF29"></path>
                    <path d="M51.6115698,78.4816275 C49.804341,80.2888563 46.846973,80.2888563 45.0397442,78.4816275 L2.32241302,35.7642963 C0.515184209,33.9570675 0.515184209,30.9996995 2.32241302,29.1924707 C4.12964182,27.3852419 7.08700982,27.3852419 8.89423863,29.1924707 L51.6115698,71.9098019 C53.4187986,73.7168758 53.4187986,76.6743987 51.6115698,78.4816275 Z" id="Path" fill="#FEDB41"></path>
                    <path d="M51.438511,79.0156755 C49.6489259,80.8052607 46.7204301,80.8052607 44.9308449,79.0156755 L23.7806999,57.8655305 L30.288366,51.3578644 L51.438511,72.5080094 C53.2280962,74.2974412 53.2280962,77.2260903 51.438511,79.0156755 Z" id="Path" fill="#FCBF29"></path>
                </g>
                <text id="Here-are-your-daily" font-family="Futura-Medium, Futura" font-size="18" font-weight="400" fill="#020303">
                    <tspan x="33" y="98">Here are your daily links</tspan>
                </text>
                <circle id="Oval" stroke="#FFFFFF" stroke-width="3" fill="#E8525F" cx="110.255475" cy="193.647206" r="13.5"></circle>
                <text id="1" font-family="Futura-Medium, Futura" font-size="14" font-weight="400" fill="#FFFFFF">
                    <tspan x="106.255475" y="199.647206">1</tspan>
                </text>
            </g>
            <g id="Simpleicons_Interface_link-symbol-of-two-chains-links-linked" transform="translate(603.000000, 309.000000)" fill="#9BA6B1" fill-rule="nonzero">
                <path d="M51.0148986,22.1969532 L36.6054568,36.6057715 C32.6254524,40.5863185 26.1771395,40.5863185 22.1967991,36.6057715 L17.3940251,31.8024588 L22.1967991,27.000266 L26.999909,31.8024588 C28.3265772,33.126545 30.4791508,33.1292331 31.8032429,31.8024588 L46.2116767,17.3942005 C47.5350968,16.0691062 47.5350968,13.91475 46.2116767,12.5893197 L41.4089028,7.78656693 C40.0848107,6.46337668 37.929661,6.46337668 36.6054568,7.78656693 L31.4614117,12.9314854 C29.0766571,11.5279898 26.3663116,10.9260917 23.6829586,11.1068628 L31.8032429,2.98381417 C35.7832474,-0.994604724 42.2346963,-0.994604724 46.2116767,2.98381417 L51.0150107,7.78656693 C54.9950151,11.7652098 54.9950151,18.2185343 51.0148986,22.1969532 Z M22.5353823,41.0708386 L17.3941371,46.211725 C16.067469,47.5384994 13.9148953,47.5352513 12.5913632,46.211725 L7.78825328,41.4089723 C6.46158513,40.084998 6.46158513,37.9323218 7.78825328,36.6056595 L22.1969111,22.1968412 C23.5206672,20.873651 25.6767129,20.873651 27.000021,22.1968412 L31.8033549,27.000154 L36.6055689,22.1968412 L31.8033549,17.3940885 C27.8227905,13.4156696 21.3744776,13.4156696 17.3942491,17.3940885 L2.98525535,31.8024588 C-0.995085118,35.7835657 -0.995085118,42.2349862 2.98525535,46.211725 L7.78825328,51.0145898 C11.7654577,54.9951367 18.2167946,54.9951367 22.1969111,51.0145898 L30.3166354,42.8945653 C27.6335064,43.0734323 24.9302171,42.4707501 22.5353823,41.0708386 Z" id="Shape"></path>
            </g>
            <g id="Simpleicons_Interface_link-symbol-of-two-chains-links-linked" transform="translate(422.000000, 412.000000) rotate(-38.000000) translate(-422.000000, -412.000000) translate(395.000000, 385.000000)"></g>
            <g id="Simpleicons_Interface_link-symbol-of-two-chains-links-linked" transform="translate(775.000000, 574.000000) rotate(-58.000000) translate(-775.000000, -574.000000) translate(748.000000, 547.000000)" fill="#9BA6B1" fill-rule="nonzero">
                <path d="M51.0148986,22.1969532 L36.6054568,36.6057715 C32.6254524,40.5863185 26.1771395,40.5863185 22.1967991,36.6057715 L17.3940251,31.8024588 L22.1967991,27.000266 L26.999909,31.8024588 C28.3265772,33.126545 30.4791508,33.1292331 31.8032429,31.8024588 L46.2116767,17.3942005 C47.5350968,16.0691062 47.5350968,13.91475 46.2116767,12.5893197 L41.4089028,7.78656693 C40.0848107,6.46337668 37.929661,6.46337668 36.6054568,7.78656693 L31.4614117,12.9314854 C29.0766571,11.5279898 26.3663116,10.9260917 23.6829586,11.1068628 L31.8032429,2.98381417 C35.7832474,-0.994604724 42.2346963,-0.994604724 46.2116767,2.98381417 L51.0150107,7.78656693 C54.9950151,11.7652098 54.9950151,18.2185343 51.0148986,22.1969532 Z M22.5353823,41.0708386 L17.3941371,46.211725 C16.067469,47.5384994 13.9148953,47.5352513 12.5913632,46.211725 L7.78825328,41.4089723 C6.46158513,40.084998 6.46158513,37.9323218 7.78825328,36.6056595 L22.1969111,22.1968412 C23.5206672,20.873651 25.6767129,20.873651 27.000021,22.1968412 L31.8033549,27.000154 L36.6055689,22.1968412 L31.8033549,17.3940885 C27.8227905,13.4156696 21.3744776,13.4156696 17.3942491,17.3940885 L2.98525535,31.8024588 C-0.995085118,35.7835657 -0.995085118,42.2349862 2.98525535,46.211725 L7.78825328,51.0145898 C11.7654577,54.9951367 18.2167946,54.9951367 22.1969111,51.0145898 L30.3166354,42.8945653 C27.6335064,43.0734323 24.9302171,42.4707501 22.5353823,41.0708386 Z" id="Shape"></path>
            </g>
            <g id="Simpleicons_Interface_link-symbol-of-two-chains-links-linked" transform="translate(290.000000, 363.000000) rotate(-58.000000) translate(-290.000000, -363.000000) translate(263.000000, 336.000000)" fill="#9BA6B1" fill-rule="nonzero">
                <path d="M51.0148986,22.1969532 L36.6054568,36.6057715 C32.6254524,40.5863185 26.1771395,40.5863185 22.1967991,36.6057715 L17.3940251,31.8024588 L22.1967991,27.000266 L26.999909,31.8024588 C28.3265772,33.126545 30.4791508,33.1292331 31.8032429,31.8024588 L46.2116767,17.3942005 C47.5350968,16.0691062 47.5350968,13.91475 46.2116767,12.5893197 L41.4089028,7.78656693 C40.0848107,6.46337668 37.929661,6.46337668 36.6054568,7.78656693 L31.4614117,12.9314854 C29.0766571,11.5279898 26.3663116,10.9260917 23.6829586,11.1068628 L31.8032429,2.98381417 C35.7832474,-0.994604724 42.2346963,-0.994604724 46.2116767,2.98381417 L51.0150107,7.78656693 C54.9950151,11.7652098 54.9950151,18.2185343 51.0148986,22.1969532 Z M22.5353823,41.0708386 L17.3941371,46.211725 C16.067469,47.5384994 13.9148953,47.5352513 12.5913632,46.211725 L7.78825328,41.4089723 C6.46158513,40.084998 6.46158513,37.9323218 7.78825328,36.6056595 L22.1969111,22.1968412 C23.5206672,20.873651 25.6767129,20.873651 27.000021,22.1968412 L31.8033549,27.000154 L36.6055689,22.1968412 L31.8033549,17.3940885 C27.8227905,13.4156696 21.3744776,13.4156696 17.3942491,17.3940885 L2.98525535,31.8024588 C-0.995085118,35.7835657 -0.995085118,42.2349862 2.98525535,46.211725 L7.78825328,51.0145898 C11.7654577,54.9951367 18.2167946,54.9951367 22.1969111,51.0145898 L30.3166354,42.8945653 C27.6335064,43.0734323 24.9302171,42.4707501 22.5353823,41.0708386 Z" id="Shape"></path>
            </g>
            <g id="email" transform="translate(422.500000, 451.000000) rotate(17.000000) translate(-422.500000, -451.000000) translate(358.000000, 391.000000)" fill-rule="nonzero">
                <polygon id="Path" fill="#FEB920" points="129 46.2641517 125.220703 94 3.77929688 94 0 46.2641517 21.4991602 31 107.50084 31"></polygon>
                <polygon id="Path" fill="#FC9B28" points="129 46.2641517 125.191406 94 64 94 64 31 107.33418 31"></polygon>
                <polygon id="Path" fill="#E6F3FF" points="22 0 108 0 108 97 22 97"></polygon>
                <polygon id="Path" fill="#BBE4F2" points="65 0 108 0 108 97 65 97"></polygon>
                <g id="Group" transform="translate(37.000000, 14.000000)" fill="#393E9F">
                    <polygon id="Path" points="0.07175 0.109576271 27.5 0.109576271 27.5 7.73669492 0.07175 7.73669492"></polygon>
                    <polygon id="Path" points="0.0725 18.7042373 54.9275 18.7042373 54.9275 26.3313559 0.0725 26.3313559"></polygon>
                    <polygon id="Path" points="0.0725 37.2991525 54.9275 37.2991525 54.9275 44.9262712 0.0725 44.9262712"></polygon>
                </g>
                <polygon id="Path" fill="#340D66" points="64 33 92 33 92 41 64 41"></polygon>
                <polygon id="Path" fill="#340D66" points="64 51 92 51 92 59 64 59"></polygon>
                <polygon id="Path" fill="#FFCF67" points="129 46 129 120 64.5 113.985303 0 120 0 46 51.6 83.0012647 77.4 83.0012647"></polygon>
                <polygon id="Path" fill="#FEB920" points="129 46 129 120 64 113.985303 64 83.0012647 77 83.0012647"></polygon>
                <polygon id="Path" fill="#FEB920" points="129 120 0 120 64.5 74"></polygon>
                <polygon id="Path" fill="#FC9B28" points="129 120 64 120 64 74"></polygon>
            </g>
            <circle id="Oval" fill="#F1F3F5" cx="1023.5" cy="566.5" r="18.5"></circle>
            <circle id="Oval" fill="#F1F3F5" cx="1067.5" cy="566.5" r="7.5"></circle>
            <circle id="Oval" fill="#F1F3F5" cx="1031.5" cy="603.5" r="7.5"></circle>
        </g>
    </g>
</svg>